<?xml version="1.0" encoding="UTF-8" standalone="no"?>
<svg
   xmlns:svg="http://www.w3.org/2000/svg"
   xmlns="http://www.w3.org/2000/svg"
   width="124"
   height="24"
   viewBox="0 0 124 24">
  <path
     d="M 6.2070312 0.29101562 L 0.14648438 14.570312 L 3.9316406 14.570312 L 4.9179688 12.044922 L 11.017578 12.044922 L 11.984375 14.570312 L 15.908203 14.570312 L 9.9902344 0.29101562 L 6.2070312 0.29101562 z M 42.117188 0.29101562 L 47.591797 14.570312 L 51.417969 14.570312 L 56.933594 0.29101562 L 53.148438 0.29101562 L 49.605469 10.619141 L 46.082031 0.29101562 L 42.117188 0.29101562 z M 83.226562 1.0234375 L 83.226562 4.0800781 L 81.716797 4.0800781 L 81.716797 6.4824219 L 83.226562 6.4824219 L 83.226562 11.208984 C 83.226562 12.309045 83.555336 13.172149 84.212891 13.796875 C 84.883865 14.4216 85.756519 14.734375 86.830078 14.734375 C 87.366857 14.734375 87.896562 14.67301 88.419922 14.550781 C 88.943282 14.414971 89.406009 14.230877 89.808594 14 L 89.125 11.433594 C 88.588221 11.678052 88.125493 11.800781 87.736328 11.800781 C 87.105612 11.800781 86.789062 11.412789 86.789062 10.638672 L 86.789062 6.4824219 L 89.607422 6.4824219 L 89.607422 4.0800781 L 86.789062 4.0800781 L 86.789062 1.0234375 L 83.226562 1.0234375 z M 76.345703 3.40625 C 75.553953 3.40625 74.849718 3.5705404 74.232422 3.8964844 C 73.628545 4.2224283 73.131352 4.70349 72.742188 5.3417969 L 72.742188 3.5507812 L 69.160156 3.5507812 L 69.160156 14.570312 L 72.742188 14.570312 L 72.742188 8.7441406 C 72.809285 8.1194148 73.030505 7.6165961 73.40625 7.2363281 C 73.795415 6.8560605 74.286496 6.6600657 74.876953 6.6464844 C 75.440572 6.6464844 75.889123 6.8305787 76.224609 7.1972656 C 76.560097 7.5503716 76.728516 8.0373835 76.728516 8.6621094 L 76.728516 14.570312 L 80.291016 14.570312 L 80.291016 7.625 C 80.291016 6.3348053 79.929731 5.309364 79.205078 4.5488281 C 78.493845 3.7882923 77.540037 3.40625 76.345703 3.40625 z M 111.98242 3.40625 C 111.21751 3.40625 110.53356 3.5764907 109.92969 3.9160156 C 109.33923 4.2555406 108.85622 4.7445056 108.48047 5.3828125 L 108.48047 3.5507812 L 104.89648 3.5507812 L 104.89648 14.570312 L 108.48047 14.570312 L 108.48047 8.9492188 C 108.56099 8.2565879 108.86336 7.7122083 109.38672 7.3183594 C 109.91008 6.9109295 110.59403 6.7070312 111.43945 6.7070312 C 111.681 6.7070313 111.86164 6.714935 111.98242 6.7285156 L 111.98242 3.40625 z M 24.070312 3.4277344 C 22.728364 3.4277344 21.66089 3.9444067 20.869141 4.9765625 L 20.869141 3.5507812 L 17.287109 3.5507812 L 17.287109 18.523438 L 20.869141 18.523438 L 20.869141 13.144531 C 21.258306 13.647028 21.727145 14.035021 22.277344 14.306641 C 22.840962 14.564679 23.465997 14.693359 24.150391 14.693359 C 25.143433 14.693359 26.016087 14.461753 26.767578 14 C 27.532489 13.538246 28.114993 12.886944 28.517578 12.044922 C 28.933582 11.2029 29.142578 10.22497 29.142578 9.1113281 C 29.142578 7.9841053 28.92747 6.9923215 28.498047 6.1367188 C 28.082043 5.2675349 27.491473 4.6023789 26.726562 4.140625 C 25.961652 3.6652901 25.076774 3.4277344 24.070312 3.4277344 z M 37.869141 3.4277344 C 36.527192 3.4277344 35.459718 3.9444067 34.667969 4.9765625 L 34.667969 3.5507812 L 31.085938 3.5507812 L 31.085938 18.523438 L 34.667969 18.523438 L 34.667969 13.144531 C 35.057133 13.647028 35.527926 14.035021 36.078125 14.306641 C 36.641743 14.564679 37.264825 14.693359 37.949219 14.693359 C 38.942261 14.693359 39.814915 14.461753 40.566406 14 C 41.331317 13.538246 41.915775 12.886944 42.318359 12.044922 C 42.734363 11.2029 42.941406 10.22497 42.941406 9.1113281 C 42.941406 7.9841053 42.726299 6.9923216 42.296875 6.1367188 C 41.880871 5.2675349 41.290301 4.6023789 40.525391 4.140625 C 39.76048 3.6652901 38.875602 3.4277344 37.869141 3.4277344 z M 61.802734 3.4277344 C 60.675498 3.4277344 59.681113 3.6652901 58.822266 4.140625 C 57.963418 4.6023789 57.29976 5.2675349 56.830078 6.1367188 C 56.360396 6.9923215 56.125 7.9841053 56.125 9.1113281 C 56.125 10.22497 56.354284 11.2029 56.810547 12.044922 C 57.280229 12.886944 57.949999 13.538246 58.822266 14 C 59.694532 14.461753 60.715317 14.693359 61.882812 14.693359 C 62.889274 14.693359 63.788329 14.529069 64.580078 14.203125 C 65.385247 13.8636 66.069194 13.376588 66.632812 12.738281 L 64.761719 10.84375 C 64.399393 11.210437 63.995577 11.4876 63.552734 11.677734 C 63.12331 11.867868 62.67476 11.962891 62.205078 11.962891 C 61.587782 11.962891 61.064189 11.800553 60.634766 11.474609 C 60.205342 11.135085 59.902969 10.65207 59.728516 10.027344 L 67.296875 10.027344 C 67.310295 9.8779526 67.318359 9.6621541 67.318359 9.3769531 C 67.318359 7.5299375 66.841456 6.0749428 65.888672 5.015625 C 64.935889 3.9563072 63.574106 3.4277344 61.802734 3.4277344 z M 118.33789 3.4277344 C 117.21066 3.4277344 116.21627 3.6652901 115.35742 4.140625 C 114.49858 4.6023789 113.83492 5.2675349 113.36523 6.1367188 C 112.89555 6.9923215 112.66016 7.9841053 112.66016 9.1113281 C 112.66016 10.22497 112.88944 11.2029 113.3457 12.044922 C 113.81539 12.886944 114.48516 13.538246 115.35742 14 C 116.22969 14.461753 117.25048 14.693359 118.41797 14.693359 C 119.42443 14.693359 120.32348 14.529069 121.11523 14.203125 C 121.9204 13.8636 122.60435 13.376588 123.16797 12.738281 L 121.29688 10.84375 C 120.93455 11.210437 120.53074 11.4876 120.08789 11.677734 C 119.65847 11.867868 119.20991 11.962891 118.74023 11.962891 C 118.12293 11.962891 117.59934 11.800553 117.16992 11.474609 C 116.7405 11.135085 116.43813 10.65207 116.26367 10.027344 L 123.83203 10.027344 C 123.8455 9.8779526 123.85352 9.6621541 123.85352 9.3769531 C 123.85352 7.5299375 123.37661 6.0749428 122.42383 5.015625 C 121.47104 3.9563072 120.10926 3.4277344 118.33789 3.4277344 z M 91.207031 3.5507812 L 91.207031 10.517578 C 91.207031 11.794191 91.556093 12.819633 92.253906 13.59375 C 92.965139 14.354285 93.912835 14.734375 95.09375 14.734375 C 96.677249 14.707213 97.8381 14.053957 98.576172 12.777344 L 98.576172 14.570312 L 102.1582 14.570312 L 102.1582 3.5507812 L 98.576172 3.5507812 L 98.576172 8.9882812 C 98.576172 9.721655 98.393576 10.319496 98.03125 10.78125 C 97.668923 11.229424 97.173684 11.461029 96.542969 11.474609 C 96.006189 11.474609 95.575974 11.298419 95.253906 10.945312 C 94.945258 10.592207 94.791016 10.103241 94.791016 9.4785156 L 94.791016 3.5507812 L 91.207031 3.5507812 z M 7.9980469 4.0996094 L 9.9296875 9.1933594 L 6.0253906 9.1933594 L 7.9980469 4.0996094 z M 61.822266 5.9746094 C 62.426142 5.9746094 62.909158 6.1706042 63.271484 6.5644531 C 63.64723 6.9447211 63.835938 7.45349 63.835938 8.0917969 L 59.648438 8.0917969 C 59.769213 7.439909 60.016832 6.9251898 60.392578 6.5449219 C 60.781743 6.1646539 61.258647 5.9746094 61.822266 5.9746094 z M 118.35742 5.9746094 C 118.9613 5.9746094 119.44431 6.1706042 119.80664 6.5644531 C 120.18238 6.9447211 120.37109 7.45349 120.37109 8.0917969 L 116.18359 8.0917969 C 116.30437 7.439909 116.55199 6.9251898 116.92773 6.5449219 C 117.31689 6.1646539 117.7938 5.9746094 118.35742 5.9746094 z M 23.183594 6.2792969 C 23.881407 6.2792969 24.445576 6.5366565 24.875 7.0527344 C 25.317843 7.5552313 25.539062 8.2144371 25.539062 9.0292969 C 25.539062 9.8441566 25.317843 10.503362 24.875 11.005859 C 24.445576 11.508356 23.881407 11.759766 23.183594 11.759766 C 22.4992 11.759766 21.943096 11.508356 21.513672 11.005859 C 21.084249 10.503362 20.869141 9.8441566 20.869141 9.0292969 C 20.869141 8.2144371 21.084249 7.5552313 21.513672 7.0527344 C 21.943096 6.5366565 22.4992 6.2792969 23.183594 6.2792969 z M 36.984375 6.2792969 C 37.682188 6.2792969 38.244405 6.5366565 38.673828 7.0527344 C 39.116671 7.5552313 39.337891 8.2144371 39.337891 9.0292969 C 39.337891 9.8441566 39.116671 10.503362 38.673828 11.005859 C 38.244405 11.508356 37.682188 11.759766 36.984375 11.759766 C 36.299981 11.759766 35.741923 11.508356 35.3125 11.005859 C 34.883077 10.503362 34.667969 9.8441566 34.667969 9.0292969 C 34.667969 8.2144371 34.883077 7.5552313 35.3125 7.0527344 C 35.741923 6.5366565 36.299981 6.2792969 36.984375 6.2792969 z M 112.92188 17.080078 C 112.73966 17.080078 112.58875 17.139766 112.46875 17.259766 C 112.35319 17.375322 112.29492 17.526225 112.29492 17.712891 C 112.29492 17.895113 112.35319 18.047969 112.46875 18.167969 C 112.58875 18.287969 112.73965 18.347656 112.92188 18.347656 C 113.1041 18.347656 113.25358 18.287969 113.36914 18.167969 C 113.48914 18.047969 113.54883 17.895113 113.54883 17.712891 C 113.54883 17.526225 113.48914 17.375322 113.36914 17.259766 C 113.25358 17.139766 113.1041 17.080078 112.92188 17.080078 z M 81.28125 17.400391 L 81.28125 22.347656 L 82.46875 22.347656 L 82.46875 21.880859 C 82.597639 22.045303 82.753325 22.170877 82.935547 22.259766 C 83.122214 22.34421 83.328021 22.386719 83.554688 22.386719 C 83.883576 22.386719 84.172986 22.311268 84.421875 22.160156 C 84.675208 22.009046 84.86862 21.795087 85.001953 21.519531 C 85.13973 21.243976 85.208984 20.924992 85.208984 20.560547 C 85.208984 20.191658 85.138316 19.86789 84.996094 19.587891 C 84.858316 19.303446 84.661536 19.084704 84.408203 18.933594 C 84.15487 18.778038 83.86263 18.701172 83.529297 18.701172 C 83.084853 18.701172 82.730972 18.869253 82.46875 19.207031 L 82.46875 17.400391 L 81.28125 17.400391 z M 118.78125 17.400391 L 118.78125 22.347656 L 119.96875 22.347656 L 119.96875 20.566406 C 119.96875 20.326406 120.02986 20.132995 120.1543 19.986328 C 120.28318 19.835239 120.458 19.758373 120.67578 19.753906 C 120.86689 19.753906 121.01443 19.813594 121.12109 19.933594 C 121.2322 20.049149 121.28906 20.209618 121.28906 20.414062 L 121.28906 22.347656 L 122.47461 22.347656 L 122.47461 20.074219 C 122.47461 19.651997 122.35523 19.315295 122.11523 19.066406 C 121.87968 18.817518 121.56211 18.693359 121.16211 18.693359 C 120.89988 18.693359 120.66733 18.746849 120.46289 18.853516 C 120.26289 18.960182 120.09764 19.119236 119.96875 19.328125 L 119.96875 17.400391 L 118.78125 17.400391 z M 103.12695 17.580078 C 102.75362 17.580078 102.42507 17.639766 102.14062 17.759766 C 101.86063 17.875321 101.64189 18.041988 101.48633 18.259766 C 101.33522 18.477543 101.25977 18.730643 101.25977 19.019531 C 101.25977 19.326198 101.3338 19.573099 101.48047 19.759766 C 101.63158 19.941988 101.81064 20.080495 102.01953 20.173828 C 102.22842 20.262717 102.49445 20.352518 102.81445 20.441406 C 103.02779 20.499182 103.19109 20.549303 103.30664 20.59375 C 103.42664 20.63375 103.52405 20.688655 103.59961 20.759766 C 103.67961 20.830877 103.7207 20.920677 103.7207 21.027344 C 103.7207 21.156232 103.66721 21.253646 103.56055 21.320312 C 103.45832 21.386979 103.31503 21.419922 103.13281 21.419922 C 102.88393 21.419922 102.59788 21.354036 102.27344 21.220703 C 101.95344 21.08737 101.67501 20.91592 101.43945 20.707031 L 100.9668 21.660156 C 101.2468 21.895712 101.57871 22.082926 101.96094 22.220703 C 102.3476 22.354036 102.73443 22.419922 103.12109 22.419922 C 103.4722 22.419922 103.78977 22.365017 104.07422 22.253906 C 104.36311 22.142795 104.58946 21.977543 104.75391 21.759766 C 104.91835 21.537544 105 21.272049 105 20.960938 C 105 20.649827 104.92455 20.398143 104.77344 20.207031 C 104.62232 20.011476 104.4399 19.866771 104.22656 19.773438 C 104.01768 19.680104 103.75218 19.587474 103.42773 19.494141 C 103.20996 19.427474 103.04471 19.373984 102.93359 19.333984 C 102.82248 19.28954 102.72985 19.234635 102.6543 19.167969 C 102.57874 19.096857 102.54102 19.008472 102.54102 18.90625 C 102.54102 18.799583 102.58353 18.721302 102.66797 18.667969 C 102.75686 18.610189 102.87624 18.580078 103.02734 18.580078 C 103.21846 18.580078 103.45438 18.62737 103.73438 18.720703 C 104.01882 18.814036 104.28432 18.933411 104.5332 19.080078 L 104.99414 18.107422 C 104.74525 17.947422 104.45585 17.819896 104.12695 17.726562 C 103.79807 17.628784 103.46473 17.580078 103.12695 17.580078 z M 91.080078 17.673828 L 91.080078 22.347656 L 92.21875 22.347656 L 92.21875 19.554688 L 94.339844 22.347656 L 95.40625 22.347656 L 95.40625 17.673828 L 94.273438 17.673828 L 94.279297 20.486328 L 92.152344 17.673828 L 91.080078 17.673828 z M 96.234375 17.673828 L 96.234375 20.419922 C 96.234375 20.824367 96.320807 21.179661 96.494141 21.486328 C 96.671918 21.78855 96.920234 22.023056 97.240234 22.1875 C 97.564678 22.351945 97.940521 22.433594 98.367188 22.433594 C 98.793853 22.433594 99.164913 22.351945 99.480469 22.1875 C 99.800468 22.023056 100.044 21.78855 100.21289 21.486328 C 100.38622 21.179661 100.47461 20.824367 100.47461 20.419922 L 100.47461 17.673828 L 99.253906 17.673828 L 99.253906 20.419922 C 99.253906 20.7177 99.172257 20.956988 99.007812 21.134766 C 98.847813 21.308099 98.63527 21.394531 98.373047 21.394531 C 98.106381 21.394531 97.886224 21.30473 97.712891 21.126953 C 97.539557 20.949175 97.453125 20.713255 97.453125 20.419922 L 97.453125 17.673828 L 96.234375 17.673828 z M 107.10742 17.673828 L 107.10742 22.347656 L 108.32812 22.347656 L 108.32812 20.554688 L 110.21484 20.554688 L 110.21484 22.347656 L 111.43555 22.347656 L 111.43555 17.673828 L 110.21484 17.673828 L 110.21484 19.580078 L 108.32812 19.580078 L 108.32812 17.673828 L 107.10742 17.673828 z M 115.64648 18.701172 C 115.35315 18.701172 115.09049 18.77184 114.85938 18.914062 C 114.62827 19.056284 114.44725 19.255895 114.31836 19.513672 C 114.19391 19.77145 114.13281 20.068473 114.13281 20.40625 C 114.13281 20.748472 114.19729 21.053646 114.32617 21.320312 C 114.45951 21.582534 114.64193 21.786927 114.87305 21.933594 C 115.1086 22.075816 115.3741 22.146484 115.67188 22.146484 C 116.11631 22.146484 116.45922 21.989383 116.69922 21.673828 L 116.69922 22.060547 C 116.69922 22.27388 116.6204 22.441962 116.46484 22.566406 C 116.30929 22.69085 116.0987 22.753906 115.83203 22.753906 C 115.63647 22.753906 115.44306 22.722376 115.25195 22.660156 C 115.06084 22.597934 114.8832 22.511502 114.71875 22.400391 L 114.30664 23.220703 C 114.51997 23.362925 114.76492 23.476102 115.04492 23.560547 C 115.32492 23.644991 115.6177 23.6875 115.91992 23.6875 C 116.30659 23.6875 116.64612 23.618246 116.93945 23.480469 C 117.23723 23.347135 117.46837 23.153724 117.63281 22.900391 C 117.79725 22.651502 117.87891 22.360677 117.87891 22.027344 L 117.87891 18.740234 L 116.69922 18.740234 L 116.69922 19.179688 C 116.57922 19.024132 116.42831 18.906172 116.24609 18.826172 C 116.06831 18.741727 115.8687 18.701172 115.64648 18.701172 z M 85.167969 18.740234 L 86.662109 22.259766 L 86.574219 22.427734 C 86.480885 22.609956 86.338133 22.701172 86.142578 22.701172 C 86.058133 22.701172 85.977899 22.68541 85.902344 22.654297 C 85.826788 22.623186 85.746554 22.571111 85.662109 22.5 L 85.167969 23.320312 C 85.332413 23.449199 85.502448 23.541829 85.675781 23.599609 C 85.849115 23.661829 86.034375 23.693359 86.234375 23.693359 C 86.576597 23.693359 86.864592 23.61171 87.095703 23.447266 C 87.326814 23.287266 87.51066 23.038949 87.648438 22.701172 L 89.195312 18.740234 L 88.015625 18.740234 L 87.248047 21.087891 L 86.388672 18.740234 L 85.167969 18.740234 z M 112.3418 18.740234 L 112.3418 22.347656 L 113.52148 22.347656 L 113.52148 18.740234 L 112.3418 18.740234 z M 115.97266 19.59375 C 116.19043 19.59375 116.36471 19.670617 116.49805 19.826172 C 116.63138 19.981728 116.69922 20.188074 116.69922 20.441406 C 116.69922 20.690296 116.63138 20.89132 116.49805 21.046875 C 116.36471 21.20243 116.19043 21.28125 115.97266 21.28125 C 115.75488 21.28125 115.57723 21.20243 115.43945 21.046875 C 115.30612 20.89132 115.23828 20.690296 115.23828 20.441406 C 115.23828 20.192518 115.30612 19.98954 115.43945 19.833984 C 115.57723 19.673984 115.75488 19.59375 115.97266 19.59375 z M 83.234375 19.634766 C 83.465486 19.634766 83.6527 19.71783 83.794922 19.886719 C 83.941589 20.051163 84.015625 20.266536 84.015625 20.533203 C 84.015625 20.799869 83.941589 21.015243 83.794922 21.179688 C 83.6527 21.344132 83.465486 21.427734 83.234375 21.427734 C 83.007708 21.427734 82.823863 21.344132 82.681641 21.179688 C 82.539419 21.015243 82.46875 20.799869 82.46875 20.533203 C 82.46875 20.266536 82.539419 20.051163 82.681641 19.886719 C 82.823863 19.71783 83.007708 19.634766 83.234375 19.634766 z"
     style="fill:#323b45" />
</svg>
